<svg width="70" height="12" viewBox="0 0 70 12" fill="none" xmlns="http://www.w3.org/2000/svg">
<rect opacity="0.35" x="46.5" y="1" width="20.7034" height="10" rx="2.16667" stroke="#212B46"/>
<path opacity="0.4" d="M68.6895 4.05859V7.94095C69.4833 7.61213 69.9996 6.84722 69.9996 5.99977C69.9996 5.15232 69.4833 4.38741 68.6895 4.05859Z" fill="#212B46"/>
<rect x="47.9727" y="2.44141" width="17.7573" height="7.11765" rx="1.33333" fill="#212B46"/>
<path fill-rule="evenodd" clip-rule="evenodd" d="M31.5004 2.78445C33.6768 2.78454 35.7699 3.63864 37.3472 5.17022C37.466 5.28846 37.6559 5.28697 37.7728 5.16687L38.9082 3.99656C38.9675 3.93565 39.0005 3.85314 39 3.76729C38.9995 3.68144 38.9655 3.59933 38.9056 3.53913C34.7657 -0.513044 28.2345 -0.513044 24.0946 3.53913C24.0346 3.59929 24.0006 3.68137 24 3.76722C23.9995 3.85307 24.0324 3.9356 24.0916 3.99656L25.2273 5.16687C25.3442 5.28715 25.5342 5.28864 25.6529 5.17022C27.2304 3.63854 29.3238 2.78444 31.5004 2.78445ZM31.5002 6.59174C32.696 6.59167 33.8491 7.04562 34.7355 7.86538C34.8554 7.98172 35.0442 7.9792 35.1611 7.85969L36.2952 6.68938C36.3549 6.62799 36.388 6.54472 36.3872 6.45818C36.3863 6.37165 36.3515 6.28908 36.2906 6.22895C33.5914 3.66457 29.4114 3.66457 26.7122 6.22895C26.6512 6.28908 26.6164 6.37169 26.6156 6.45825C26.6148 6.54481 26.6481 6.62808 26.7079 6.68938L27.8417 7.85969C27.9585 7.9792 28.1474 7.98172 28.2673 7.86538C29.1531 7.04616 30.3052 6.59225 31.5002 6.59174ZM33.772 9.15412C33.7737 9.2409 33.7403 9.32456 33.6797 9.38536L31.718 11.4073C31.6605 11.4667 31.5821 11.5002 31.5002 11.5002C31.4184 11.5002 31.34 11.4667 31.2825 11.4073L29.3205 9.38536C29.2599 9.32452 29.2265 9.24083 29.2283 9.15405C29.2301 9.06727 29.2669 8.9851 29.33 8.92693C30.5828 7.84467 32.4177 7.84467 33.6705 8.92693C33.7335 8.98514 33.7703 9.06734 33.772 9.15412Z" fill="#212B46"/>
<path fill-rule="evenodd" clip-rule="evenodd" d="M16 0.5H15C14.4477 0.5 14 0.961706 14 1.53125V10.4688C14 11.0383 14.4477 11.5 15 11.5H16C16.5523 11.5 17 11.0383 17 10.4688V1.53125C17 0.961706 16.5523 0.5 16 0.5ZM10.3335 2.90625H11.3335C11.8858 2.90625 12.3335 3.36796 12.3335 3.9375V10.4687C12.3335 11.0383 11.8858 11.5 11.3335 11.5H10.3335C9.78121 11.5 9.3335 11.0383 9.3335 10.4687V3.9375C9.3335 3.36796 9.78121 2.90625 10.3335 2.90625ZM6.6665 5.3125H5.6665C5.11422 5.3125 4.6665 5.77421 4.6665 6.34375V10.4688C4.6665 11.0383 5.11422 11.5 5.6665 11.5H6.6665C7.21879 11.5 7.6665 11.0383 7.6665 10.4688V6.34375C7.6665 5.77421 7.21879 5.3125 6.6665 5.3125ZM2 7.375H1C0.447715 7.375 0 7.83671 0 8.40625V10.4688C0 11.0383 0.447715 11.5 1 11.5H2C2.55228 11.5 3 11.0383 3 10.4688V8.40625C3 7.83671 2.55228 7.375 2 7.375Z" fill="#212B46"/>
</svg>
