<svg width="100" height="44" viewBox="0 0 100 44" fill="none" xmlns="http://www.w3.org/2000/svg">
<path d="M11.0506 10.8828C10.6934 10.5826 10.9056 10 11.3723 10H88.5099C88.9894 10 89.194 10.6096 88.8115 10.8988L86.8484 12.3834C86.5973 12.5733 86.5821 12.9452 86.8168 13.155L89.5659 15.612C89.7942 15.8161 89.7871 16.1756 89.5509 16.3705L86.8127 18.6295C86.5765 18.8244 86.5694 19.1839 86.7977 19.388L89.5659 21.862C89.7942 22.0661 89.7871 22.4256 89.5509 22.6205L86.9017 24.8061C86.6376 25.024 86.6656 25.4369 86.9568 25.617L89.4524 27.1612C89.7299 27.3329 89.7712 27.7202 89.536 27.9466L86.7678 30.611C86.5525 30.8182 86.5658 31.1668 86.7963 31.357L88.9264 33.1143C89.2881 33.4127 89.0771 34 88.6083 34H11.2854C10.8294 34 10.6114 33.4396 10.9475 33.1314L12.8706 31.3686C13.0868 31.1704 13.0868 30.8296 12.8706 30.6314L10.4199 28.3849C10.1974 28.1809 10.205 27.8278 10.4361 27.6335L12.8366 25.6165C13.0677 25.4222 13.0754 25.0691 12.8528 24.8651L10.4199 22.6349C10.1974 22.4309 10.205 22.0778 10.4361 21.8835L12.8691 19.8392C13.0885 19.6548 13.1083 19.3242 12.9126 19.1149L10.3314 16.3544C10.1468 16.157 10.1525 15.8486 10.3443 15.6581L12.8845 13.1356C13.093 12.9285 13.0788 12.5871 12.8538 12.398L11.0506 10.8828Z" fill="#C02634"/>
<path d="M22.705 26.15C21.985 26.15 21.3717 25.9933 20.865 25.68C20.3583 25.3633 19.97 24.9233 19.7 24.36C19.4333 23.7967 19.3 23.1433 19.3 22.4C19.3 21.6567 19.4333 21.0033 19.7 20.44C19.97 19.8767 20.3583 19.4383 20.865 19.125C21.3717 18.8083 21.985 18.65 22.705 18.65C23.535 18.65 24.2217 18.86 24.765 19.28C25.3117 19.7 25.6917 20.265 25.905 20.975L24.845 21.26C24.705 20.7567 24.455 20.3617 24.095 20.075C23.7383 19.7883 23.275 19.645 22.705 19.645C22.195 19.645 21.77 19.76 21.43 19.99C21.09 20.22 20.8333 20.5417 20.66 20.955C20.49 21.3683 20.405 21.85 20.405 22.4C20.4017 22.95 20.485 23.4317 20.655 23.845C20.8283 24.2583 21.085 24.58 21.425 24.81C21.7683 25.04 22.195 25.155 22.705 25.155C23.275 25.155 23.7383 25.0117 24.095 24.725C24.455 24.435 24.705 24.04 24.845 23.54L25.905 23.825C25.6917 24.535 25.3117 25.1 24.765 25.52C24.2217 25.94 23.535 26.15 22.705 26.15ZM29.3497 26.15C28.8097 26.15 28.3414 26.0283 27.9447 25.785C27.548 25.5417 27.2414 25.2067 27.0247 24.78C26.8114 24.35 26.7047 23.855 26.7047 23.295C26.7047 22.7317 26.8147 22.2367 27.0347 21.81C27.2547 21.38 27.563 21.0467 27.9597 20.81C28.3564 20.57 28.8197 20.45 29.3497 20.45C29.8897 20.45 30.358 20.5717 30.7547 20.815C31.1514 21.0583 31.458 21.3933 31.6747 21.82C31.8914 22.2467 31.9997 22.7383 31.9997 23.295C31.9997 23.8583 31.8897 24.355 31.6697 24.785C31.453 25.2117 31.1464 25.5467 30.7497 25.79C30.353 26.03 29.8864 26.15 29.3497 26.15ZM29.3497 25.165C29.8664 25.165 30.2514 24.9917 30.5047 24.645C30.7614 24.295 30.8897 23.845 30.8897 23.295C30.8897 22.7317 30.7597 22.2817 30.4997 21.945C30.243 21.605 29.8597 21.435 29.3497 21.435C28.9997 21.435 28.7114 21.515 28.4847 21.675C28.258 21.8317 28.0897 22.05 27.9797 22.33C27.8697 22.6067 27.8147 22.9283 27.8147 23.295C27.8147 23.8617 27.9447 24.315 28.2047 24.655C28.4647 24.995 28.8464 25.165 29.3497 25.165ZM39.5684 26L39.5734 22.635C39.5734 22.245 39.4734 21.9417 39.2734 21.725C39.0734 21.505 38.8101 21.395 38.4834 21.395C38.2834 21.395 38.1001 21.4417 37.9334 21.535C37.7701 21.625 37.6368 21.7617 37.5334 21.945C37.4334 22.125 37.3834 22.3517 37.3834 22.625L36.8784 22.37C36.8718 21.99 36.9518 21.6567 37.1184 21.37C37.2884 21.0833 37.5184 20.8617 37.8084 20.705C38.0984 20.545 38.4234 20.465 38.7834 20.465C39.3668 20.465 39.8184 20.64 40.1384 20.99C40.4584 21.34 40.6184 21.805 40.6184 22.385L40.6134 26H39.5684ZM33.0934 26V20.6H34.0234V22.16H34.1434V26H33.0934ZM36.3334 26L36.3384 22.655C36.3384 22.2617 36.2384 21.9533 36.0384 21.73C35.8418 21.5067 35.5768 21.395 35.2434 21.395C34.9134 21.395 34.6468 21.5083 34.4434 21.735C34.2434 21.9617 34.1434 22.2583 34.1434 22.625L33.6434 22.305C33.6434 21.9517 33.7284 21.6367 33.8984 21.36C34.0684 21.0833 34.2984 20.865 34.5884 20.705C34.8784 20.545 35.2068 20.465 35.5734 20.465C35.9568 20.465 36.2834 20.5467 36.5534 20.71C36.8234 20.87 37.0284 21.095 37.1684 21.385C37.3118 21.675 37.3834 22.0117 37.3834 22.395L37.3784 26H36.3334ZM42.0168 19.715V18.7H43.0618V19.715H42.0168ZM42.0168 26V20.6H43.0618V26H42.0168ZM48.3533 26V23.345C48.3533 23.135 48.3349 22.92 48.2983 22.7C48.2649 22.4767 48.1983 22.27 48.0983 22.08C48.0016 21.89 47.8633 21.7367 47.6833 21.62C47.5066 21.5033 47.2749 21.445 46.9883 21.445C46.8016 21.445 46.6249 21.4767 46.4583 21.54C46.2916 21.6 46.1449 21.6983 46.0183 21.835C45.8949 21.9717 45.7966 22.1517 45.7233 22.375C45.6533 22.5983 45.6183 22.87 45.6183 23.19L44.9683 22.945C44.9683 22.455 45.0599 22.0233 45.2433 21.65C45.4266 21.2733 45.6899 20.98 46.0333 20.77C46.3766 20.56 46.7916 20.455 47.2783 20.455C47.6516 20.455 47.9649 20.515 48.2183 20.635C48.4716 20.755 48.6766 20.9133 48.8333 21.11C48.9933 21.3033 49.1149 21.515 49.1983 21.745C49.2816 21.975 49.3383 22.2 49.3683 22.42C49.3983 22.64 49.4133 22.8333 49.4133 23V26H48.3533ZM44.5583 26V20.6H45.4933V22.16H45.6183V26H44.5583ZM52.9406 28.55C52.6506 28.55 52.369 28.505 52.0956 28.415C51.8256 28.325 51.579 28.1917 51.3556 28.015C51.1323 27.8417 50.9473 27.6267 50.8006 27.37L51.7656 26.88C51.8823 27.11 52.049 27.2783 52.2656 27.385C52.4823 27.4917 52.7106 27.545 52.9506 27.545C53.2473 27.545 53.5006 27.4917 53.7106 27.385C53.9206 27.2817 54.079 27.125 54.1856 26.915C54.2956 26.705 54.349 26.445 54.3456 26.135V24.625H54.4706V20.6H55.3956V26.145C55.3956 26.2883 55.3906 26.425 55.3806 26.555C55.3706 26.685 55.3523 26.815 55.3256 26.945C55.249 27.3083 55.1023 27.6083 54.8856 27.845C54.6723 28.0817 54.399 28.2583 54.0656 28.375C53.7356 28.4917 53.3606 28.55 52.9406 28.55ZM52.8606 26.15C52.3573 26.15 51.9223 26.025 51.5556 25.775C51.1923 25.525 50.9106 25.185 50.7106 24.755C50.514 24.3217 50.4156 23.835 50.4156 23.295C50.4156 22.7517 50.5156 22.2667 50.7156 21.84C50.9156 21.41 51.199 21.0717 51.5656 20.825C51.9356 20.575 52.374 20.45 52.8806 20.45C53.3906 20.45 53.819 20.575 54.1656 20.825C54.5156 21.0717 54.779 21.41 54.9556 21.84C55.1356 22.27 55.2256 22.755 55.2256 23.295C55.2256 23.835 55.1356 24.32 54.9556 24.75C54.7756 25.18 54.5106 25.5217 54.1606 25.775C53.8106 26.025 53.3773 26.15 52.8606 26.15ZM53.0056 25.205C53.349 25.205 53.629 25.1233 53.8456 24.96C54.0623 24.7967 54.2206 24.5717 54.3206 24.285C54.4206 23.9983 54.4706 23.6683 54.4706 23.295C54.4706 22.9217 54.419 22.5917 54.3156 22.305C54.2156 22.0183 54.059 21.795 53.8456 21.635C53.6356 21.475 53.3673 21.395 53.0406 21.395C52.694 21.395 52.409 21.48 52.1856 21.65C51.9623 21.82 51.7956 22.0483 51.6856 22.335C51.579 22.6217 51.5256 22.9417 51.5256 23.295C51.5256 23.6517 51.579 23.975 51.6856 24.265C51.7956 24.5517 51.959 24.78 52.1756 24.95C52.3956 25.12 52.6723 25.205 53.0056 25.205ZM60.8666 26.145C60.2099 26.145 59.6749 26 59.2616 25.71C58.8482 25.42 58.5949 25.0117 58.5016 24.485L59.5716 24.32C59.6382 24.6 59.7916 24.8217 60.0316 24.985C60.2749 25.145 60.5766 25.225 60.9366 25.225C61.2632 25.225 61.5182 25.1583 61.7016 25.025C61.8882 24.8917 61.9816 24.7083 61.9816 24.475C61.9816 24.3383 61.9482 24.2283 61.8816 24.145C61.8182 24.0583 61.6832 23.9767 61.4766 23.9C61.2699 23.8233 60.9549 23.7283 60.5316 23.615C60.0682 23.495 59.6999 23.3667 59.4266 23.23C59.1566 23.09 58.9632 22.9283 58.8466 22.745C58.7332 22.5583 58.6766 22.3333 58.6766 22.07C58.6766 21.7433 58.7632 21.4583 58.9366 21.215C59.1099 20.9717 59.3532 20.7833 59.6666 20.65C59.9832 20.5167 60.3532 20.45 60.7766 20.45C61.1899 20.45 61.5582 20.515 61.8816 20.645C62.2049 20.775 62.4666 20.96 62.6666 21.2C62.8666 21.4367 62.9866 21.715 63.0266 22.035L61.9566 22.23C61.9199 21.97 61.7982 21.765 61.5916 21.615C61.3849 21.465 61.1166 21.3833 60.7866 21.37C60.4699 21.3567 60.2132 21.41 60.0166 21.53C59.8199 21.6467 59.7216 21.8083 59.7216 22.015C59.7216 22.135 59.7582 22.2367 59.8316 22.32C59.9082 22.4033 60.0549 22.4833 60.2716 22.56C60.4882 22.6367 60.8082 22.7283 61.2316 22.835C61.6849 22.9517 62.0449 23.0817 62.3116 23.225C62.5782 23.365 62.7682 23.5333 62.8816 23.73C62.9982 23.9233 63.0566 24.1583 63.0566 24.435C63.0566 24.9683 62.8616 25.3867 62.4716 25.69C62.0849 25.9933 61.5499 26.145 60.8666 26.145ZM66.5079 26.15C65.9679 26.15 65.4996 26.0283 65.1029 25.785C64.7062 25.5417 64.3996 25.2067 64.1829 24.78C63.9696 24.35 63.8629 23.855 63.8629 23.295C63.8629 22.7317 63.9729 22.2367 64.1929 21.81C64.4129 21.38 64.7212 21.0467 65.1179 20.81C65.5146 20.57 65.9779 20.45 66.5079 20.45C67.0479 20.45 67.5162 20.5717 67.9129 20.815C68.3096 21.0583 68.6162 21.3933 68.8329 21.82C69.0496 22.2467 69.1579 22.7383 69.1579 23.295C69.1579 23.8583 69.0479 24.355 68.8279 24.785C68.6112 25.2117 68.3046 25.5467 67.9079 25.79C67.5112 26.03 67.0446 26.15 66.5079 26.15ZM66.5079 25.165C67.0246 25.165 67.4096 24.9917 67.6629 24.645C67.9196 24.295 68.0479 23.845 68.0479 23.295C68.0479 22.7317 67.9179 22.2817 67.6579 21.945C67.4012 21.605 67.0179 21.435 66.5079 21.435C66.1579 21.435 65.8696 21.515 65.6429 21.675C65.4162 21.8317 65.2479 22.05 65.1379 22.33C65.0279 22.6067 64.9729 22.9283 64.9729 23.295C64.9729 23.8617 65.1029 24.315 65.3629 24.655C65.6229 24.995 66.0046 25.165 66.5079 25.165ZM72.6016 26.15C72.0616 26.15 71.5933 26.0283 71.1966 25.785C70.8 25.5417 70.4933 25.2067 70.2766 24.78C70.0633 24.35 69.9566 23.855 69.9566 23.295C69.9566 22.7317 70.0666 22.2367 70.2866 21.81C70.5066 21.38 70.815 21.0467 71.2116 20.81C71.6083 20.57 72.0716 20.45 72.6016 20.45C73.1416 20.45 73.61 20.5717 74.0066 20.815C74.4033 21.0583 74.71 21.3933 74.9266 21.82C75.1433 22.2467 75.2516 22.7383 75.2516 23.295C75.2516 23.8583 75.1416 24.355 74.9216 24.785C74.705 25.2117 74.3983 25.5467 74.0016 25.79C73.605 26.03 73.1383 26.15 72.6016 26.15ZM72.6016 25.165C73.1183 25.165 73.5033 24.9917 73.7566 24.645C74.0133 24.295 74.1416 23.845 74.1416 23.295C74.1416 22.7317 74.0116 22.2817 73.7516 21.945C73.495 21.605 73.1116 21.435 72.6016 21.435C72.2516 21.435 71.9633 21.515 71.7366 21.675C71.51 21.8317 71.3416 22.05 71.2316 22.33C71.1216 22.6067 71.0666 22.9283 71.0666 23.295C71.0666 23.8617 71.1966 24.315 71.4566 24.655C71.7166 24.995 72.0983 25.165 72.6016 25.165ZM80.1404 26V23.345C80.1404 23.135 80.1221 22.92 80.0854 22.7C80.0521 22.4767 79.9854 22.27 79.8854 22.08C79.7887 21.89 79.6504 21.7367 79.4704 21.62C79.2937 21.5033 79.0621 21.445 78.7754 21.445C78.5887 21.445 78.4121 21.4767 78.2454 21.54C78.0787 21.6 77.9321 21.6983 77.8054 21.835C77.6821 21.9717 77.5837 22.1517 77.5104 22.375C77.4404 22.5983 77.4054 22.87 77.4054 23.19L76.7554 22.945C76.7554 22.455 76.8471 22.0233 77.0304 21.65C77.2137 21.2733 77.4771 20.98 77.8204 20.77C78.1637 20.56 78.5787 20.455 79.0654 20.455C79.4387 20.455 79.7521 20.515 80.0054 20.635C80.2587 20.755 80.4637 20.9133 80.6204 21.11C80.7804 21.3033 80.9021 21.515 80.9854 21.745C81.0687 21.975 81.1254 22.2 81.1554 22.42C81.1854 22.64 81.2004 22.8333 81.2004 23V26H80.1404ZM76.3454 26V20.6H77.2804V22.16H77.4054V26H76.3454Z" fill="white"/>
</svg>
